<svg version="1.1" id="Layer_1" xmlns="http://www.w3.org/2000/svg" xmlns:xlink="http://www.w3.org/1999/xlink" x="0px" y="0px"
	 width="100%" viewBox="0 0 1024 1024" enable-background="new 0 0 1024 1024" xml:space="preserve">
<path fill="#000000" opacity="1.000000" stroke="none" 
	d="
M761.296570,618.296753 
	C730.521667,648.813110 700.012573,679.095581 669.450378,709.324341 
	C664.287170,714.431213 659.332581,715.460938 654.087952,712.946838 
	C649.000244,710.507812 646.152527,705.411316 646.720703,699.908508 
	C647.068481,696.539795 648.932434,694.023315 651.199707,691.758362 
	C664.043213,678.927673 676.911621,666.121887 689.776855,653.312927 
	C730.518555,612.749268 771.262451,572.187988 812.005249,531.625488 
	C813.165955,530.469971 814.980469,529.446472 814.432800,527.578369 
	C813.801453,525.424744 811.590027,525.474060 809.798157,525.477722 
	C793.151245,525.511841 776.504517,525.690735 759.857788,525.676025 
	C738.875122,525.657532 717.892639,525.414185 696.910034,525.410583 
	C536.750732,525.382812 376.591431,525.388245 216.432114,525.387512 
	C189.434921,525.387390 162.437714,525.410583 135.440521,525.416016 
	C118.786804,525.419312 102.132988,525.443176 85.479424,525.390259 
	C77.657959,525.365417 72.189056,520.684631 71.743912,513.830872 
	C71.285164,506.767670 76.295059,501.340637 84.272690,500.410797 
	C86.747444,500.122345 89.257942,500.035339 91.752151,500.034180 
	C169.412262,499.998383 247.072372,499.970764 324.732483,499.974701 
	C354.537201,499.976227 384.341919,500.089050 414.146637,500.092468 
	C437.800690,500.095184 461.464447,499.571747 485.105804,500.096619 
	C504.755798,500.532867 524.405151,500.170959 544.044861,500.293396 
	C565.495605,500.427094 586.979065,500.319885 608.446960,500.105621 
	C649.742371,499.693481 691.048157,499.677246 732.343018,500.119629 
	C752.320496,500.333618 772.301453,499.141479 792.281189,500.470612 
	C798.233215,500.866577 804.260010,500.199890 810.248962,499.939117 
	C811.826843,499.870392 813.856873,500.314728 814.496277,498.217468 
	C815.019348,496.501801 813.495056,495.501617 812.465027,494.481659 
	C801.099609,483.227600 789.657288,472.050934 778.325500,460.763306 
	C736.058411,418.660980 693.799500,376.550232 651.600403,334.379791 
	C643.392334,326.177307 646.040039,314.895233 656.640320,312.152557 
	C661.944214,310.780212 666.014954,313.140900 669.634399,316.713287 
	C687.660217,334.505096 705.755188,352.227356 723.709839,370.090637 
	C768.127991,414.282867 812.466064,458.555603 856.880798,502.751312 
	C863.889954,509.725891 863.843872,516.140747 856.120117,523.846130 
	C824.620361,555.271179 793.073853,586.649292 761.296570,618.296753 
z"/>
<path fill="#000000" opacity="1.000000" stroke="none" 
	d="
M855.618164,445.383453 
	C808.457336,398.260590 761.554749,351.379456 714.651978,304.498596 
	C708.995483,298.844757 703.172729,293.345581 697.731445,287.491730 
	C693.301270,282.725708 692.932007,277.521484 695.948364,272.338867 
	C698.675354,267.653503 703.802063,265.613281 709.781372,266.690857 
	C712.575806,267.194519 714.607544,268.813446 716.518005,270.720520 
	C759.907654,314.032837 803.272949,357.369629 846.698608,400.645752 
	C879.618225,433.451935 912.615051,466.180511 945.578125,498.942963 
	C946.287292,499.647766 947.011047,500.337921 947.716858,501.046051 
	C956.397949,509.755402 956.308594,516.420593 947.644287,524.985779 
	C930.351440,542.080933 913.125122,559.243469 895.892517,576.399475 
	C872.632690,599.556091 849.379517,622.719421 826.147400,645.903809 
	C789.939880,682.036926 753.727966,718.165771 717.587463,754.365784 
	C713.070923,758.889954 708.181580,761.267639 701.899719,758.797363 
	C693.954407,755.672852 691.423584,746.385132 696.813660,739.396912 
	C702.427185,732.118958 709.533020,726.223572 716.005859,719.747559 
	C746.744019,688.994629 777.560059,658.319641 808.349060,627.617554 
	C845.161865,590.908569 881.919861,554.144226 918.874756,517.578857 
	C922.560791,513.931763 922.345398,512.033997 918.793640,508.529144 
	C897.684753,487.699402 876.821838,466.620422 855.618164,445.383453 
z"/>
</svg>