<svg version="1.1" id="Layer_1" xmlns="http://www.w3.org/2000/svg" xmlns:xlink="http://www.w3.org/1999/xlink" x="0px" y="0px"
	 width="100%" viewBox="0 0 1024 1024" enable-background="new 0 0 1024 1024" xml:space="preserve">
<path fill="#000000" opacity="1.000000" stroke="none" 
	d="
M950.204956,638.042786 
	C928.087463,704.635193 892.741272,762.688538 844.248962,812.897095 
	C796.723633,862.104553 740.956604,898.804932 677.450073,923.788025 
	C636.912842,939.735107 594.790588,949.018005 551.325867,952.523132 
	C461.068359,959.801636 376.043945,942.099121 296.272125,899.428223 
	C250.780365,875.094299 210.547577,843.776550 175.443588,805.972473 
	C139.411423,767.168945 110.849930,723.462891 89.848000,674.800903 
	C73.634834,637.234558 63.312584,598.054077 58.060303,557.597656 
	C54.195797,527.830811 53.742382,497.952606 56.399055,467.921356 
	C61.527699,409.946930 77.493660,355.172211 103.777939,303.464874 
	C128.847672,254.146805 161.871979,210.710464 202.830353,173.341614 
	C235.048065,143.947403 270.658539,119.599251 309.522766,99.900154 
	C353.737915,77.488808 400.478638,63.098724 449.459808,55.973873 
	C477.543732,51.888760 505.842346,50.602573 534.172546,51.944538 
	C595.652405,54.856754 654.107117,69.853584 709.650757,96.456207 
	C754.224182,117.804642 794.160156,145.688080 829.874695,179.793808 
	C893.166992,240.234970 935.582947,312.919403 957.702576,397.477783 
	C968.173340,437.505096 972.468018,478.326508 971.108398,519.631653 
	C969.782532,559.908447 962.836792,599.303772 950.204956,638.042786 
M123.349716,681.242493 
	C142.527512,721.412170 167.581924,757.636841 197.939682,790.060486 
	C235.463959,830.138550 279.286072,861.812012 328.894012,885.403625 
	C376.312408,907.953979 426.223267,921.461182 478.543762,925.544189 
	C506.803558,927.749634 535.073486,927.162476 563.321777,923.938110 
	C608.064270,918.831055 650.789246,906.685303 691.649536,888.028442 
	C733.789490,868.787354 771.817261,843.338501 805.943481,811.876282 
	C844.609741,776.228516 875.968994,735.067322 899.538147,688.222168 
	C923.805054,639.990112 938.235474,588.785095 941.899841,534.740662 
	C944.207092,500.711273 942.754822,466.881165 936.679260,433.272308 
	C927.150330,380.559692 908.368652,331.409668 880.387329,285.733398 
	C846.120056,229.796005 801.163391,184.296967 746.241455,148.645142 
	C688.231384,110.988686 624.744690,88.493752 555.923706,81.405952 
	C521.656128,77.876778 487.401764,78.641739 453.287750,83.495995 
	C393.593170,91.990234 338.074707,112.260857 286.963623,144.110809 
	C233.510193,177.420349 188.732239,219.982727 154.010895,272.715118 
	C111.018387,338.009155 87.103493,409.716553 83.470634,487.876953 
	C82.014259,519.210754 84.183769,550.408569 90.284195,581.292725 
	C97.093086,615.763489 107.789314,648.901855 123.349716,681.242493 
z"/>
<path fill="#000000" opacity="1.000000" stroke="none" 
	d="
M263.456879,235.447174 
	C307.302460,194.690094 357.476349,165.740707 414.802277,149.461273 
	C440.997437,142.022354 467.728241,138.030197 494.952301,136.510223 
	C558.837891,132.943375 619.067383,146.428513 676.122986,174.670547 
	C707.667053,190.284592 736.080383,210.544601 761.743042,234.710556 
	C796.321533,267.272217 824.573975,304.499695 844.886414,347.476593 
	C861.410706,382.438507 872.610779,419.083099 877.436523,457.564148 
	C888.250427,543.795044 870.418518,623.661133 824.382446,697.326172 
	C806.515076,725.916809 785.188293,751.688599 760.271179,774.277405 
	C709.437744,820.360718 650.606323,851.079224 583.002563,864.274780 
	C549.471008,870.819824 515.738464,872.678772 481.618866,869.536804 
	C399.258911,861.952393 327.921814,829.817139 266.713135,774.533813 
	C219.724899,732.094177 186.045685,680.751038 165.275330,621.123108 
	C154.347046,589.750000 148.102982,557.365417 146.403275,523.942993 
	C143.923569,475.182800 150.819855,427.982635 167.003098,382.141571 
	C183.277390,336.042572 208.171539,294.923340 240.814453,258.510376 
	C247.936218,250.566086 255.309402,242.872360 263.456879,235.447174 
M850.884766,497.503998 
	C850.833923,472.721649 847.145752,448.355560 841.218750,424.413269 
	C827.971191,370.899689 802.844116,323.439545 766.688416,281.840576 
	C722.421082,230.908615 667.680847,196.212555 602.955200,177.540329 
	C559.533264,165.013840 515.286865,162.125061 470.392639,168.017975 
	C432.696777,172.966034 396.848114,183.757523 362.994598,200.899216 
	C325.457275,219.906204 292.581268,245.096848 264.347565,276.410126 
	C237.529343,306.153534 215.953140,339.197723 200.924774,376.307465 
	C179.482437,429.255341 170.999741,484.184540 177.218445,541.165100 
	C180.507141,571.298645 188.056213,600.381409 199.574951,628.370972 
	C218.993805,675.557129 247.054611,716.707703 284.661072,751.515320 
	C314.879974,779.485107 348.775604,801.453796 386.720459,816.993164 
	C438.699707,838.280090 492.778900,845.569885 548.732849,839.941040 
	C598.541687,834.930298 644.515259,818.763550 687.099487,792.982910 
	C737.573975,762.425415 777.428162,721.249878 806.620544,669.926208 
	C836.835327,616.805237 852.343262,559.829712 850.884766,497.503998 
z"/>
<path fill="#000000" opacity="1.000000" stroke="none" 
	d="
M498.659363,350.999878 
	C498.661346,310.679291 498.664856,270.858734 498.664673,231.038193 
	C498.664642,225.074997 500.864502,220.342087 506.298676,217.453201 
	C511.290802,214.799332 516.252930,214.976700 521.003845,217.993362 
	C525.631714,220.931885 527.428528,225.304535 527.419739,230.731033 
	C527.382263,253.868439 527.392883,277.006439 527.521057,300.143494 
	C527.665833,326.284027 527.601807,352.427887 527.627991,378.565613 
	C527.652832,403.369659 527.670715,428.185211 527.455017,452.994751 
	C527.330872,467.280670 527.493652,481.569153 527.359558,495.854858 
	C527.327759,499.239197 529.001465,500.901093 531.698364,502.405182 
	C560.785767,518.627686 589.822693,534.940491 618.888062,551.202576 
	C645.772278,566.244324 672.687317,581.230957 699.560669,596.292053 
	C708.076782,601.064880 711.089844,609.586731 707.000916,616.834229 
	C702.688904,624.477295 693.825928,626.555908 685.296204,621.791748 
	C634.551880,593.449463 583.825378,565.075439 533.089050,536.718872 
	C524.948120,532.168884 516.919800,527.391541 508.597107,523.200500 
	C501.291901,519.521790 498.517548,514.080261 498.551422,505.948975 
	C498.765900,454.466675 498.659912,402.983063 498.659363,350.999878 
z"/>
</svg>