<svg version="1.1" id="Layer_1" xmlns="http://www.w3.org/2000/svg" xmlns:xlink="http://www.w3.org/1999/xlink" x="0px" y="0px"
	 width="100%" viewBox="0 0 1024 1024" enable-background="new 0 0 1024 1024" xml:space="preserve">
<path fill="#000000" opacity="1.000000" stroke="none" 
	d="
M897.375122,556.999939 
	C897.370483,602.498779 897.492981,647.498169 897.320374,692.496460 
	C897.162170,733.726135 861.922241,768.802917 820.684570,769.449036 
	C796.544617,769.827148 772.402832,769.185364 748.278259,769.572693 
	C723.133423,769.976440 697.983521,769.808350 672.858948,769.656921 
	C590.031616,769.157715 507.206299,769.601990 424.380676,769.433167 
	C351.716553,769.285095 279.049988,769.721375 206.388290,769.276428 
	C173.272583,769.073669 150.310959,751.825195 135.654327,722.876099 
	C130.703323,713.097046 128.601730,702.573242 128.608582,691.511414 
	C128.682083,573.012024 128.611176,454.512512 128.653061,336.013031 
	C128.666183,298.870667 154.186127,266.837189 190.221893,258.422577 
	C196.086044,257.053284 202.032166,256.608276 208.060196,256.609711 
	C384.892273,256.651733 561.724365,256.655365 738.556458,256.656067 
	C765.056152,256.656189 791.556458,256.483337 818.055298,256.620605 
	C849.648499,256.784271 872.502075,271.812775 887.988098,298.730652 
	C894.864563,310.683380 897.518188,323.680206 897.481750,337.530579 
	C897.289795,410.519989 897.380798,483.510132 897.375122,556.999939 
M163.357788,716.132446 
	C173.555466,731.719177 187.223145,741.662842 206.507919,741.668213 
	C410.833649,741.724854 615.159424,741.724854 819.485168,741.692749 
	C846.547607,741.688477 869.616943,718.640137 869.643127,691.595459 
	C869.711365,621.098083 869.672180,550.600586 869.666382,480.103180 
	C869.665833,473.959564 868.909302,473.308258 862.751038,473.459106 
	C842.938049,473.944519 823.101562,473.882446 803.307129,473.627289 
	C782.152222,473.354614 761.004272,473.788910 739.853333,473.593842 
	C711.878723,473.335876 683.881226,473.659332 655.905640,473.599884 
	C632.428650,473.550018 608.934875,473.605164 585.457520,473.595184 
	C558.646362,473.583801 531.819824,473.599365 505.010773,473.591156 
	C481.702423,473.584015 458.380402,473.848724 435.061157,473.522888 
	C402.088837,473.062195 369.102997,473.177917 336.126984,473.484253 
	C306.310486,473.761200 276.489746,473.637787 246.679153,473.626282 
	C218.869217,473.615540 191.046844,474.066589 163.233231,473.439423 
	C156.310181,473.283264 156.291931,473.446960 156.290619,480.248291 
	C156.277206,549.745544 156.318619,619.242920 156.201508,688.739990 
	C156.185333,698.334961 158.295319,707.197266 163.357788,716.132446 
M246.500061,357.750641 
	C418.976959,357.752930 591.453857,357.754608 763.930786,357.758026 
	C796.926270,357.758667 829.921692,357.768402 862.917175,357.768524 
	C869.688538,357.768555 869.690796,357.757385 869.687622,350.801514 
	C869.685974,347.135345 869.530212,343.462860 869.690857,339.804016 
	C871.167969,306.156464 843.206482,283.874939 814.478516,283.961487 
	C612.007690,284.571472 409.534210,284.277740 207.061554,284.279419 
	C182.917389,284.279602 161.000534,303.379517 157.222519,327.317902 
	C155.936356,335.467255 156.787064,343.616333 156.235107,351.736053 
	C155.896149,356.722168 157.835495,357.881592 162.512024,357.849823 
	C190.173630,357.661896 217.837128,357.753082 246.500061,357.750641 
M176.500580,385.419128 
	C171.668777,385.409790 166.823364,385.621857 162.009232,385.325500 
	C157.663361,385.057953 156.160400,386.616486 156.217407,391.025299 
	C156.424225,407.018585 156.299896,423.016174 156.303207,439.012115 
	C156.304611,445.805298 156.307663,445.786133 163.246338,445.785919 
	C308.875183,445.781860 454.504028,445.786102 600.132874,445.780762 
	C687.610046,445.777527 775.087219,445.763916 862.564392,445.743988 
	C869.657715,445.742371 869.666931,445.702820 869.670654,438.513947 
	C869.678528,423.351105 869.687134,408.188232 869.672363,393.025391 
	C869.665222,385.638397 869.463684,385.350586 862.134827,385.421753 
	C836.147461,385.674194 810.147583,385.779785 784.173157,385.606110 
	C760.198425,385.445831 736.220276,385.703461 712.247070,385.582550 
	C627.463318,385.154938 542.676086,385.407837 457.890198,385.408752 
	C364.426880,385.409729 270.963562,385.417267 176.500580,385.419128 
z"/>
<path fill="#000000" opacity="1.000000" stroke="none" 
	d="
M263.002258,543.080811 
	C287.485657,543.064331 311.469574,543.075195 335.453369,543.023438 
	C350.312378,542.991333 363.892120,546.029602 374.053741,558.100342 
	C380.512207,565.772217 384.233795,574.439331 384.379272,584.513550 
	C384.617340,601.001465 384.890930,617.490112 384.946381,633.979126 
	C384.979309,643.776489 383.266235,653.203064 377.687866,661.588867 
	C369.167358,674.397522 356.966522,680.840576 341.867523,680.984802 
	C309.873810,681.290344 277.872192,681.323120 245.879257,680.972595 
	C221.922531,680.710205 203.734177,661.905701 203.622055,638.040405 
	C203.540634,620.709167 203.508362,603.376343 203.649841,586.045898 
	C203.843124,562.369751 220.368515,545.195862 244.025650,543.541687 
	C250.193314,543.110352 256.341919,543.141052 263.002258,543.080811 
M253.534775,571.172974 
	C251.869370,571.163818 250.203873,571.139343 248.538559,571.147827 
	C237.216965,571.205627 231.378540,576.873108 231.270935,588.327209 
	C231.125427,603.813477 231.127045,619.302429 231.219635,634.789307 
	C231.296463,647.639526 236.666840,653.022827 249.424225,653.040527 
	C279.567444,653.082336 309.710815,653.037415 339.854065,652.989075 
	C351.006592,652.971191 356.741119,647.280334 356.791321,636.113525 
	C356.861725,620.459106 356.833801,604.804138 356.814178,589.149414 
	C356.798401,576.552307 351.472870,571.189453 338.959290,571.182007 
	C310.814117,571.165222 282.668976,571.177002 253.534775,571.172974 
z"/>
</svg>