<svg version="1.1" id="Layer_1" xmlns="http://www.w3.org/2000/svg" xmlns:xlink="http://www.w3.org/1999/xlink" x="0px" y="0px"
	 width="100%" viewBox="0 0 1024 1024" enable-background="new 0 0 1024 1024" xml:space="preserve">
<path fill="#000000" opacity="1.000000" stroke="none" 
	d="
M461.024475,841.000000 
	C461.048126,776.174866 461.095459,711.849670 461.110046,647.524536 
	C461.115662,622.705688 461.048248,597.886902 461.010986,573.068054 
	C460.998932,565.036072 460.994324,565.007324 453.125305,565.007935 
	C354.135651,565.016235 255.145981,565.025818 156.156311,565.052979 
	C124.502960,565.061646 100.873634,540.164185 102.730263,508.700684 
	C104.113396,485.261292 124.132034,464.272278 147.813385,461.684143 
	C163.425919,459.977844 179.112900,461.001160 194.761307,460.982422 
	C280.919220,460.879333 367.077332,460.948578 453.235382,460.962891 
	C460.966217,460.964172 460.963104,460.977875 460.963928,453.287109 
	C460.974731,354.631714 460.981995,255.976303 461.001190,157.320892 
	C461.006378,130.641663 476.838623,109.541084 501.126068,103.782486 
	C534.098145,95.964752 565.055420,120.618950 565.091431,154.999680 
	C565.162109,222.492523 565.036926,289.985565 565.012939,357.478516 
	C565.001465,389.641846 565.030151,421.805206 565.054504,453.968536 
	C565.059753,460.937500 565.086975,460.939392 571.960938,460.938171 
	C671.284302,460.920532 770.607727,460.894867 869.931091,460.889496 
	C895.580994,460.888092 916.248779,476.883118 922.224121,501.281036 
	C930.013306,533.085205 904.824158,564.922729 871.439636,564.993408 
	C810.946228,565.121582 750.452148,564.959473 689.958374,564.937134 
	C650.629150,564.922546 611.299988,564.937805 571.970764,564.947388 
	C565.122070,564.949097 564.937744,565.196411 564.940125,571.910583 
	C564.975281,671.399292 565.043945,770.887939 564.990967,870.376648 
	C564.976501,897.513489 547.511230,918.834717 520.842651,922.838806 
	C491.026245,927.315491 464.802887,906.455688 461.631470,877.966125 
	C460.279663,865.822510 461.468506,853.650940 461.024475,841.000000 
M130.496323,529.974548 
	C136.725800,538.792419 145.466614,542.017212 155.988327,542.010620 
	C260.154144,541.945496 364.320038,541.974365 468.485901,541.968567 
	C479.549927,541.967957 484.036377,546.334839 484.039307,557.348572 
	C484.059174,631.514038 484.066956,705.679565 484.062103,779.845032 
	C484.060059,810.511414 483.883484,841.178406 484.039215,871.843872 
	C484.146454,892.961731 505.367950,907.104553 524.409485,898.766724 
	C536.503967,893.470886 542.015442,883.880798 542.004822,870.602112 
	C541.922791,768.603516 541.978149,666.604675 542.005676,564.605957 
	C542.006714,560.777039 541.836731,556.907593 542.311523,553.128052 
	C543.157776,546.390076 547.689758,542.379150 554.381104,542.028320 
	C557.207214,541.880188 560.046265,541.970337 562.879456,541.970215 
	C665.711853,541.965698 768.544312,541.972473 871.376709,541.952820 
	C891.834595,541.948914 905.421692,523.958984 899.725586,504.521820 
	C895.967590,491.698425 885.531250,484.088593 871.737549,484.088318 
	C767.405334,484.086334 663.073181,484.081451 558.740967,484.071503 
	C555.916443,484.071228 553.102417,484.183807 550.362793,483.108978 
	C542.660583,480.087189 541.925781,473.618134 541.928406,466.647278 
	C541.956848,390.814972 541.956970,314.982697 541.966187,239.150391 
	C541.969666,210.317566 542.168335,181.482971 541.905212,152.652603 
	C541.762512,137.017670 529.188416,125.224564 513.475708,125.134827 
	C497.417725,125.043114 484.774414,136.721542 484.166321,152.375931 
	C483.933563,158.367767 484.018555,164.373352 484.018860,170.372665 
	C484.023682,269.370483 484.041138,368.368317 484.046631,467.366150 
	C484.047333,480.168488 480.048676,484.150238 467.297668,484.146454 
	C363.132111,484.115662 258.966553,484.080017 154.800995,484.081543 
	C152.151398,484.081573 149.428299,484.171082 146.863892,484.760376 
	C127.331375,489.248505 119.258774,510.823120 130.496323,529.974548 
z"/>
</svg>