<svg version="1.1" id="Layer_1" xmlns="http://www.w3.org/2000/svg" xmlns:xlink="http://www.w3.org/1999/xlink" x="0px" y="0px"
	 width="100%" viewBox="0 0 1024 1024" enable-background="new 0 0 1024 1024" xml:space="preserve">
<path fill="#000000" opacity="1.000000" stroke="none" 
	d="
M1025.000000,651.539368 
	C1016.921997,660.607544 1008.979004,669.346680 1000.741089,677.798340 
	C974.641479,704.574951 945.280640,727.110779 912.560059,745.262512 
	C869.036316,769.407410 822.764587,785.401367 773.601013,793.442444 
	C739.490479,799.021423 705.341064,799.941162 671.104980,796.079041 
	C628.672485,791.292236 588.496948,778.854675 550.341797,759.549622 
	C524.092896,746.268738 499.725922,730.055481 475.376007,713.726562 
	C433.940521,685.940063 391.270660,660.187927 344.756592,641.805725 
	C319.558289,631.847473 293.504700,624.064514 266.444336,620.223877 
	C246.807144,617.436829 227.191116,614.955200 207.306549,615.232483 
	C188.260651,615.498108 169.474060,617.787292 150.897583,621.951843 
	C149.370865,622.294128 147.792938,623.323303 146.128555,622.226685 
	C145.831131,620.291565 147.456238,620.146790 148.531158,619.577576 
	C178.024033,603.961426 209.583817,595.126709 242.527405,590.649536 
	C259.882019,588.291016 277.265900,586.683716 294.786591,586.937195 
	C331.687469,587.471069 367.580933,593.923157 402.802185,604.835266 
	C445.531677,618.073486 485.456451,637.303833 524.077209,659.645142 
	C556.090027,678.163940 588.661865,695.672485 623.568298,708.335266 
	C655.983582,720.094360 689.264526,727.759338 723.764771,730.000000 
	C755.609375,732.068298 787.342529,731.655762 818.910889,726.658447 
	C846.126221,722.350220 872.521362,714.905884 898.499390,705.774902 
	C930.200012,694.632568 960.276001,680.066040 989.162537,663.051758 
	C1001.201965,655.960510 1012.626404,647.825317 1024.665283,640.082397 
	C1025.000000,643.692932 1025.000000,647.385803 1025.000000,651.539368 
z"/>
<path fill="#000000" opacity="1.000000" stroke="none" 
	d="
M0.999996,721.454102 
	C8.356485,716.173279 15.818019,711.498474 23.051693,706.494263 
	C58.486008,681.981140 98.153687,668.164062 140.013275,659.672607 
	C161.973923,655.217773 184.195862,653.105286 206.501068,652.997742 
	C242.918991,652.822083 278.345062,659.602478 313.091095,670.295593 
	C350.016296,681.659302 383.792084,699.414368 416.295959,719.998901 
	C441.627594,736.041199 465.894318,753.676270 491.440094,769.393799 
	C529.597839,792.871094 569.017761,813.622437 612.390869,825.796875 
	C636.795471,832.646973 661.688721,836.918640 687.008484,838.957520 
	C726.385315,842.128235 764.729675,836.531677 802.614258,826.412354 
	C806.304504,825.426697 809.856201,823.927063 813.485535,822.705627 
	C814.971130,822.205750 816.405090,820.888489 818.810852,822.782288 
	C814.953003,825.759583 811.423462,828.840515 807.555908,831.413391 
	C767.885864,857.803162 724.994995,875.653381 677.321716,881.456787 
	C636.964233,886.369690 597.697266,881.548218 558.819214,870.636719 
	C513.895447,858.028381 473.151550,836.895020 434.532471,811.162231 
	C405.847931,792.048950 377.440369,772.501892 347.880768,754.731995 
	C307.529419,730.474548 264.255249,713.996094 217.994110,704.988586 
	C184.454391,698.458008 150.801559,698.166626 117.034805,701.484924 
	C97.135681,703.440369 77.673874,708.161865 58.194183,712.605652 
	C38.819916,717.025452 20.246088,723.894714 1.319655,730.843140 
	C1.000000,727.969421 1.000000,724.938782 0.999996,721.454102 
z"/>
<path fill="#000000" opacity="1.000000" stroke="none" 
	d="
M305.566772,279.678650 
	C317.086639,249.841492 333.348480,223.393677 356.705017,202.024139 
	C372.670502,187.416870 390.360382,174.952774 410.140717,165.574326 
	C435.549347,153.527298 462.213104,146.080185 490.044098,143.210602 
	C517.373840,140.392700 544.615662,141.912277 571.437622,148.275360 
	C610.696655,157.588943 645.422424,175.474670 673.903259,204.326767 
	C699.990173,230.753708 717.131775,262.406250 726.150085,298.397278 
	C731.182373,318.480743 734.393127,338.862549 733.922119,359.637054 
	C733.726135,368.279907 732.904724,376.924194 732.012207,385.530975 
	C731.242371,392.954468 730.743652,393.227325 723.352783,393.224640 
	C663.359192,393.202698 603.365540,393.148682 543.371948,393.126495 
	C499.543335,393.110291 455.714752,393.126892 411.886139,393.131866 
	C410.386505,393.132050 408.884644,393.118500 407.387665,393.191193 
	C403.589111,393.375671 401.863251,395.042450 403.062744,399.037872 
	C408.650482,417.649658 417.226990,434.575226 430.794312,448.735107 
	C460.323303,479.553833 497.489014,490.779510 538.767639,488.351685 
	C575.638672,486.183075 608.242920,472.248810 635.101135,446.184540 
	C640.341553,441.099060 640.850220,441.115204 645.937683,446.179810 
	C662.468506,462.636292 679.000061,479.092041 695.511108,495.568359 
	C701.245605,501.290802 701.263672,502.052612 695.607117,508.077240 
	C663.457520,542.318542 623.679382,562.321899 577.937073,571.372192 
	C557.228210,575.469543 536.317383,577.091003 515.322449,576.105286 
	C461.796265,573.591980 412.193420,559.114380 369.945557,524.848267 
	C350.600189,509.157776 333.908844,490.816956 321.248810,469.028748 
	C298.902191,430.569672 289.847321,388.944733 292.182495,344.900146 
	C293.356018,322.765869 297.718842,300.990387 305.566772,279.678650 
M620.245728,296.167358 
	C617.876160,289.361298 614.162842,283.206421 610.641541,276.994324 
	C602.204651,262.110779 589.468689,251.214920 575.228210,242.541046 
	C563.161499,235.191162 549.652771,230.466858 535.406067,228.747391 
	C501.802826,224.691681 470.340607,229.555420 443.149200,251.495819 
	C422.751862,267.954193 409.478760,288.948059 403.571808,314.514221 
	C401.717163,322.541382 401.952515,322.765778 410.030304,322.766724 
	C479.337646,322.774963 548.644958,322.771271 617.952332,322.765961 
	C619.951111,322.765808 621.951355,322.744720 623.948425,322.668640 
	C626.796021,322.560211 627.852478,321.098358 626.989929,318.368744 
	C624.735718,311.235413 623.740112,303.726562 620.245728,296.167358 
z"/>
</svg>