<svg version="1.1" id="Layer_1" xmlns="http://www.w3.org/2000/svg" xmlns:xlink="http://www.w3.org/1999/xlink" x="0px" y="0px"
	 width="100%" viewBox="0 0 1024 544" enable-background="new 0 0 1024 544" xml:space="preserve">
<path fill="#6B1C2E" opacity="1.000000" stroke="none" 
	d="
M608.994324,268.003571 
	C574.173096,267.999481 539.850952,267.992157 505.528839,267.989746 
	C499.171631,267.989288 498.207245,269.121277 499.778564,275.434540 
	C500.931549,280.066986 502.435822,284.611969 503.924072,289.673920 
	C499.494934,289.751953 496.107117,287.763641 492.596466,286.664398 
	C482.732239,283.575653 472.708252,282.655792 462.497864,283.591644 
	C460.117676,283.809784 458.556427,283.611572 458.169220,280.972473 
	C454.847046,258.328308 455.410309,236.077103 465.995697,215.161240 
	C476.185852,195.026215 492.448273,182.036621 514.246460,176.256485 
	C538.767334,169.754410 562.811523,170.608154 585.506104,182.912827 
	C608.665039,195.469238 619.183716,216.493881 623.303772,241.509735 
	C624.447144,248.451691 624.170593,255.441284 624.389343,262.424103 
	C624.530334,266.924713 622.729980,268.380646 618.485962,268.027008 
	C615.508423,267.778870 612.492310,267.993866 608.994324,268.003571 
M548.944702,202.351440 
	C521.386719,199.500275 506.370239,213.306381 501.089294,234.491776 
	C499.741455,239.898804 500.205658,240.654587 505.810333,240.673767 
	C518.974060,240.718781 532.138062,240.694290 545.301941,240.691422 
	C555.466431,240.689224 565.630920,240.681595 575.795410,240.666641 
	C578.811829,240.662201 581.248169,240.078049 580.356445,236.110199 
	C576.834595,220.440674 568.569580,206.016006 548.944702,202.351440 
z"/>
<path fill="#6B1C2E" opacity="1.000000" stroke="none" 
	d="
M222.837219,309.999939 
	C222.833527,295.671631 222.708527,281.841644 222.898605,268.015961 
	C222.957886,263.704285 221.553589,262.182007 217.145981,262.228577 
	C198.821320,262.422302 180.493423,262.307037 162.166702,262.310242 
	C155.483215,262.311432 155.430511,262.317780 155.414261,268.844849 
	C155.367386,287.671265 155.404037,306.497955 155.332291,325.324219 
	C155.298019,334.316681 156.427551,333.403595 147.439255,333.411621 
	C142.107864,333.416382 136.776474,333.415222 131.445084,333.408783 
	C124.704529,333.400635 124.680222,333.397125 124.678452,326.432434 
	C124.668503,287.279968 124.669884,248.127472 124.670616,208.974991 
	C124.670799,199.311829 124.810501,189.646225 124.626373,179.986694 
	C124.553482,176.162842 125.759209,174.546631 129.750336,174.675552 
	C136.574112,174.895981 143.414825,174.891113 150.239120,174.680222 
	C154.149796,174.559372 155.470505,176.018036 155.437332,179.914688 
	C155.292740,196.907257 155.494492,213.902985 155.315079,230.894852 
	C155.272324,234.941772 156.307861,236.149414 160.594208,236.258087 
	C179.085388,236.726852 197.562042,236.259537 216.043961,236.057693 
	C222.714630,235.984848 222.817825,235.931030 222.827057,229.412582 
	C222.849960,213.251801 222.972412,197.088913 222.741226,180.931366 
	C222.672897,176.157135 224.181717,174.379486 229.029266,174.655792 
	C235.173721,175.006012 241.373199,175.045746 247.511658,174.646347 
	C252.735992,174.306396 254.037704,176.500748 254.023819,181.315903 
	C253.914444,219.301697 253.996750,257.288025 254.004654,295.274170 
	C254.006989,306.436615 253.856247,317.600372 253.993546,328.760834 
	C254.039322,332.483093 252.744217,333.685699 249.013382,333.530457 
	C242.027679,333.239807 235.014160,333.230896 228.027527,333.500916 
	C224.157440,333.650513 222.605133,332.531403 222.785141,328.488861 
	C223.051651,322.503662 222.843552,316.497284 222.837219,309.999939 
z"/>
<path fill="#1C2E4A" opacity="1.000000" stroke="none" 
	d="
M754.253418,312.637177 
	C742.233582,285.621948 741.572754,258.817444 755.939636,233.125839 
	C768.735168,210.244049 795.382507,207.319534 813.892456,215.660583 
	C817.687622,217.370819 820.679749,220.240036 824.702515,223.487167 
	C824.702515,216.380081 824.697266,210.287827 824.703613,204.195572 
	C824.714600,193.701828 824.832703,183.206741 824.693787,172.715042 
	C824.645020,169.032059 826.025940,167.661179 829.681274,167.768600 
	C835.838745,167.949600 842.018982,168.055237 848.164368,167.724014 
	C853.006897,167.463028 854.409546,169.284698 854.395752,174.039398 
	C854.258972,221.177643 854.325317,268.316467 854.332214,315.455139 
	C854.332886,320.119019 854.214600,324.785980 854.352051,329.445618 
	C854.439270,332.403717 853.190308,333.656586 850.304077,333.838715 
	C844.149048,334.227081 838.012756,333.040649 831.845947,333.793304 
	C829.304749,334.103424 828.528564,332.066833 828.036072,330.006439 
	C827.394043,327.320557 827.528442,324.415436 825.576477,321.400116 
	C814.453674,335.520386 799.689575,338.452240 783.384094,334.931915 
	C770.550110,332.161163 760.903870,324.477417 754.253418,312.637177 
M777.310120,262.727325 
	C775.338318,274.433716 775.929626,285.954651 780.522644,296.988434 
	C784.954651,307.635345 792.237000,311.641785 804.391113,310.697327 
	C813.130981,310.018219 819.865723,303.901550 822.571167,293.984528 
	C825.370850,283.721802 825.167725,273.262360 824.151184,262.808167 
	C823.587158,257.007599 822.451477,251.306900 819.432922,246.155685 
	C811.402039,232.450897 791.038818,232.340668 782.883118,245.955338 
	C779.931824,250.881973 778.351318,256.262024 777.310120,262.727325 
z"/>
<path fill="#1C2E4A" opacity="1.000000" stroke="none" 
	d="
M664.751587,329.417542 
	C660.601379,327.979309 656.721191,326.892303 653.106445,325.228577 
	C631.370300,315.224335 610.158630,316.754211 589.206909,327.634033 
	C574.883728,335.071808 559.564575,338.580322 543.446777,338.104767 
	C529.063416,337.680389 515.346619,333.833160 502.719391,327.250366 
	C480.772461,315.809021 459.019165,316.150116 436.896881,326.175720 
	C429.576263,329.493317 421.808258,331.451141 413.971436,333.023834 
	C406.773926,334.468262 405.751587,333.516937 405.769684,326.306244 
	C405.783020,320.981079 404.364502,314.923553 406.432709,310.534851 
	C408.549896,306.042236 415.602051,307.245667 420.248047,305.179962 
	C430.282715,300.718262 440.299438,296.179810 451.106262,293.732971 
	C470.223175,289.404694 488.466705,292.081024 506.117371,300.178680 
	C515.193115,304.342377 524.203247,308.681366 534.108459,310.675659 
	C551.499878,314.177216 567.343323,309.500854 582.799500,301.971252 
	C596.106262,295.488770 610.052673,291.260681 625.096130,291.699951 
	C638.119812,292.080231 650.432495,295.401245 662.172241,300.847229 
	C672.306519,305.548462 682.745178,308.272339 694.032654,307.870911 
	C703.519836,307.533508 713.028381,307.827728 722.527161,307.776550 
	C734.184998,307.713776 732.189514,307.464386 732.342102,317.787506 
	C732.401184,321.786133 732.294617,325.787292 732.358459,329.785767 
	C732.395325,332.095276 731.750183,333.896118 729.135071,333.814178 
	C707.754272,333.144318 686.097290,336.507355 664.751587,329.417542 
z"/>
<path fill="#6B1C2E" opacity="1.000000" stroke="none" 
	d="
M376.570312,213.981857 
	C380.459839,213.700211 381.466675,215.226044 381.557556,218.690460 
	C382.518433,255.320847 381.715149,291.955017 382.018127,328.584930 
	C382.051758,332.649323 380.536926,333.719635 376.701691,333.503601 
	C371.223358,333.194977 365.692810,333.123993 360.225739,333.519897 
	C355.665894,333.850128 353.296234,332.541901 353.256256,327.714661 
	C353.243225,326.143799 352.558105,324.578491 352.049561,322.467560 
	C349.491943,324.831726 347.519958,327.046051 345.179077,328.755066 
	C329.583801,340.140594 303.436493,338.192535 289.745880,324.604919 
	C280.575165,315.503174 278.288666,303.593048 278.027557,291.533630 
	C277.501404,267.230591 277.871918,242.908844 277.766510,218.595276 
	C277.751373,215.105057 279.169525,213.864685 282.535156,213.930283 
	C289.027557,214.056824 295.531128,214.140396 302.016876,213.894623 
	C306.526855,213.723709 308.167358,215.363434 308.123108,219.968155 
	C307.934296,239.617691 308.047424,259.270081 308.033356,278.921417 
	C308.028931,285.093781 308.235565,291.214935 310.286835,297.150360 
	C313.068298,305.198608 318.449188,309.933136 327.057281,310.628937 
	C336.024628,311.353821 343.793060,307.019440 347.691772,299.409943 
	C350.523468,293.882965 350.990540,287.954590 351.003448,281.926910 
	C351.046997,261.609558 351.055908,241.292084 351.103424,220.974731 
	C351.119293,214.193817 351.284454,214.047302 358.140594,214.007950 
	C364.135376,213.973526 370.130463,213.984558 376.570312,213.981857 
z"/>
<path fill="#1C2E4A" opacity="1.000000" stroke="none" 
	d="
M960.067139,213.998199 
	C965.888977,213.995270 971.221497,214.069351 976.550476,213.965179 
	C979.886536,213.899979 981.299194,215.169815 981.291626,218.673569 
	C981.212097,255.490967 981.207947,292.308685 981.291199,329.126038 
	C981.300110,333.051727 979.501282,333.889374 976.042480,333.738770 
	C970.892944,333.514526 965.719177,333.461029 960.570984,333.685608 
	C953.972595,333.973480 953.533325,333.745270 952.672668,327.223450 
	C952.478943,325.755493 952.128845,324.308105 951.738403,322.262329 
	C949.058350,324.786438 946.960449,327.294769 944.375793,329.109985 
	C927.619873,340.878204 897.526489,338.450500 884.873535,319.311768 
	C878.935242,310.329559 877.171143,300.112213 876.995667,289.785797 
	C876.596680,266.302734 876.920349,242.808014 876.817200,219.318619 
	C876.800720,215.566833 877.897827,213.819778 881.936646,213.951080 
	C888.593018,214.167480 895.265747,214.122238 901.924438,213.933609 
	C905.947388,213.819672 907.467651,215.212479 907.431152,219.436325 
	C907.249878,240.425781 907.352661,261.417664 907.343079,282.408691 
	C907.340820,287.257965 907.941772,292.054962 909.183105,296.709717 
	C911.628845,305.880585 916.674255,310.187286 925.092346,310.719086 
	C936.275635,311.425629 943.966248,307.290466 947.480408,298.589142 
	C949.621216,293.288269 950.666626,287.747223 950.674255,282.030518 
	C950.700378,262.372253 950.652954,242.713791 950.733765,223.055817 
	C950.769226,214.427200 948.989014,213.971008 960.067139,213.998199 
z"/>
<path fill="#1C2E4A" opacity="1.000000" stroke="none" 
	d="
M709.993042,238.028534 
	C714.157959,238.033829 717.825012,238.086319 721.490601,238.036575 
	C724.739502,237.992493 726.412476,239.238617 726.310242,242.763550 
	C726.150818,248.258652 726.129761,253.766739 726.320862,259.259918 
	C726.447815,262.910004 724.902100,263.608734 721.505798,263.549164 
	C708.343567,263.318207 695.173035,263.563538 682.010681,263.334534 
	C677.723389,263.259949 676.044189,264.535004 676.181641,269.003906 
	C676.456360,277.940582 676.263184,286.891632 676.263184,295.309479 
	C673.968323,296.876709 672.647949,295.876312 671.291687,295.359283 
	C664.446106,292.749725 657.723389,289.731781 650.721924,287.649109 
	C646.360474,286.351776 644.999573,284.249603 645.022217,279.896515 
	C645.165344,252.398376 645.089905,224.899124 645.094482,197.400253 
	C645.095459,191.400620 645.175171,185.400635 645.127808,179.401520 
	C645.101624,176.093170 646.427307,174.671463 649.908081,174.684464 
	C675.406738,174.779800 700.906006,174.782440 726.404724,174.694534 
	C729.980591,174.682205 731.539368,175.800735 731.416138,179.574387 
	C731.247742,184.728912 731.242981,189.924942 731.715942,195.052643 
	C732.084351,199.046432 730.856995,200.421616 726.851868,200.382523 
	C712.187317,200.239395 697.520264,200.330521 682.854187,200.349197 
	C676.268860,200.357590 676.264893,200.374512 676.259644,206.978867 
	C676.252869,215.478531 676.461121,223.985413 676.166626,232.474945 
	C676.010498,236.974823 677.735229,238.239197 681.997437,238.123596 
	C691.157166,237.875168 700.328125,238.037247 709.993042,238.028534 
z"/>
<path fill="#1C2E4A" opacity="1.000000" stroke="none" 
	d="
M449.821777,336.553009 
	C468.103149,332.636993 485.222626,334.855591 501.985321,342.033447 
	C512.970520,346.737366 524.022400,351.253113 536.124878,352.900208 
	C552.204041,355.088501 567.228577,352.011627 581.916077,345.882843 
	C591.743835,341.781891 601.433716,337.295624 612.104309,335.625824 
	C627.990662,333.139771 643.294556,335.147827 658.071777,341.363953 
	C663.963013,343.842194 670.115295,345.865631 674.781738,351.134674 
	C670.193237,350.224091 665.607666,349.298401 661.015686,348.405609 
	C643.831055,345.064514 628.008667,349.501129 612.743713,356.953400 
	C601.377930,362.502106 590.796204,369.548706 578.915710,374.147034 
	C555.056641,383.381714 531.633545,381.824371 508.497101,371.797943 
	C498.549866,367.487183 489.235138,361.912567 479.662781,356.851654 
	C461.381622,347.186432 442.252380,344.432251 422.156799,350.263275 
	C420.782074,350.662170 419.378632,351.557190 416.773834,350.055542 
	C427.432800,343.859894 437.915497,339.115753 449.821777,336.553009 
z"/>
<path fill="#6B1C2E" opacity="1.000000" stroke="none" 
	d="
M435.375732,213.000122 
	C435.366547,237.155182 435.275665,260.810760 435.430908,284.464722 
	C435.455688,288.240601 434.198761,290.144653 430.723877,291.509918 
	C424.219757,294.065338 417.864166,296.995880 411.152344,299.014709 
	C407.529572,300.104370 405.632965,299.505463 405.646820,294.996887 
	C405.771545,254.350327 405.760651,213.703171 405.679352,173.056412 
	C405.671783,169.276169 406.792480,167.569839 410.804504,167.704483 
	C417.294037,167.922287 423.800842,167.913971 430.291229,167.710556 
	C434.244324,167.586639 435.477081,169.181870 435.429260,173.020157 
	C435.265320,186.178329 435.371979,199.339874 435.375732,213.000122 
z"/>
</svg>